<?xml version="1.0" standalone="no"?>
<!DOCTYPE svg PUBLIC "-//W3C//DTD SVG 20010904//EN"
 "http://www.w3.org/TR/2001/REC-SVG-20010904/DTD/svg10.dtd">
<svg version="1.0" xmlns="http://www.w3.org/2000/svg"
 width="500.000000pt" height="500.000000pt" viewBox="0 0 500.000000 500.000000"
 preserveAspectRatio="xMidYMid meet">

<g transform="translate(0.000000,500.000000) scale(0.100000,-0.100000)"
fill="#000000" stroke="none">
<path d="M0 2500 l0 -2500 2500 0 2500 0 0 2500 0 2500 -2500 0 -2500 0 0
-2500z m2438 2067 c16 -19 112 -290 106 -299 -13 -20 -45 -7 -55 22 -10 28
-14 30 -65 30 -52 0 -54 -1 -62 -32 -8 -33 -35 -49 -53 -31 -11 11 66 304 83
315 19 11 34 10 46 -5z m-230 -39 c2 -12 -8 -20 -38 -28 -31 -8 -40 -15 -36
-28 18 -59 54 -237 50 -244 -8 -13 -44 -9 -49 5 -2 6 -16 64 -30 128 l-26 117
-40 -5 c-30 -4 -40 -2 -45 11 -4 9 -5 19 -2 21 8 8 173 44 193 42 11 -1 21
-10 23 -19z m693 1 c20 -5 43 -16 50 -25 19 -23 14 -82 -10 -107 -14 -16 -17
-27 -11 -37 27 -43 -1 -133 -45 -144 -26 -7 -131 9 -153 23 -9 5 -3 46 18 147
16 76 32 145 35 153 5 14 36 11 116 -10z m236 -74 c3 -9 -13 -64 -35 -123 -23
-59 -42 -113 -44 -120 -2 -9 18 -22 50 -34 37 -15 52 -26 52 -39 0 -11 -6 -19
-14 -19 -27 0 -156 52 -156 63 0 10 96 263 106 279 9 14 34 9 41 -7z m-1297
-147 c25 -64 48 -119 51 -122 3 -4 28 3 54 14 52 22 78 20 73 -6 -4 -19 -147
-79 -159 -67 -4 4 -32 70 -62 145 -40 100 -52 139 -44 147 25 25 43 3 87 -111z
m-186 37 c4 -11 -12 -27 -53 -53 l-60 -38 22 -37 c24 -42 28 -43 62 -21 25 16
55 13 55 -5 0 -5 -16 -19 -35 -31 l-35 -22 22 -36 c12 -21 23 -39 24 -40 1 -2
29 11 63 30 45 25 63 30 72 21 17 -17 6 -28 -73 -75 -49 -29 -74 -39 -84 -32
-22 14 -155 246 -150 260 5 14 135 94 152 94 7 0 15 -7 18 -15z m1811 -46 c50
-45 48 -83 -11 -179 -54 -89 -66 -100 -116 -100 -52 0 -108 49 -108 94 0 32
63 151 102 194 32 34 88 30 133 -9z m-2072 -155 c35 -17 127 -120 141 -157 5
-13 6 -36 2 -51 -7 -30 -94 -118 -112 -113 -14 3 -204 222 -204 235 0 19 104
95 138 101 2 1 18 -6 35 -15z m2322 -26 c44 -42 54 -85 27 -118 -17 -21 -23
-23 -34 -12 -7 7 -13 32 -13 55 0 37 -3 42 -29 52 -27 9 -32 7 -78 -45 -80
-89 -83 -96 -64 -125 20 -30 56 -33 81 -5 17 19 17 21 1 39 -17 19 -15 41 4
41 15 0 70 -51 70 -65 0 -8 -15 -30 -34 -49 -26 -29 -41 -36 -70 -36 -60 0
-116 52 -116 109 0 20 56 97 115 156 48 47 91 48 140 3z m-2797 -2061 c2 -12
-3 -17 -17 -17 -12 0 -21 6 -21 13 0 31 32 34 38 4z m3202 3 c0 -11 -6 -20
-14 -20 -18 0 -29 16 -21 30 11 18 35 11 35 -10z m-3132 -153 c2 -12 -3 -17
-17 -17 -15 0 -21 6 -21 21 0 25 33 22 38 -4z m583 -14 c6 -21 20 -55 31 -75
27 -55 15 -46 -35 25 -62 88 -62 87 -33 87 19 0 27 -7 37 -37z m1909 29 c0 -7
-81 -124 -102 -147 -5 -5 5 20 21 57 17 37 31 74 31 83 0 9 9 15 25 15 14 0
25 -4 25 -8z m578 -9 c5 -17 -26 -29 -40 -15 -6 6 -7 15 -3 22 9 14 37 9 43
-7z m-2991 -139 c8 -21 -13 -42 -28 -27 -13 13 -5 43 11 43 6 0 13 -7 17 -16z
m2903 -4 c0 -13 -7 -20 -20 -20 -19 0 -27 20 -13 33 13 14 33 6 33 -13z m-90
-135 c0 -19 -20 -29 -32 -17 -15 15 -2 43 17 36 8 -3 15 -12 15 -19z m-2712
-2 c5 -18 -28 -29 -38 -12 -5 7 -6 17 -3 22 7 12 35 5 41 -10z m102 -123 c0
-11 -6 -20 -14 -20 -18 0 -29 16 -21 30 11 18 35 11 35 -10z m2500 0 c0 -13
-7 -20 -20 -20 -13 0 -20 7 -20 20 0 13 7 20 20 20 13 0 20 -7 20 -20z m-2382
-113 c2 -12 -3 -17 -17 -17 -12 0 -21 6 -21 13 0 31 32 34 38 4z m2260 0 c2
-12 -3 -17 -17 -17 -12 0 -21 6 -21 13 0 31 32 34 38 4z m-2131 -111 c-4 -9
-11 -16 -17 -16 -17 0 -24 31 -9 41 18 11 34 -5 26 -25z m2000 18 c8 -20 -8
-36 -26 -25 -15 10 -8 41 9 41 6 0 13 -7 17 -16z m-1860 -90 c8 -21 -13 -42
-28 -27 -13 13 -5 43 11 43 6 0 13 -7 17 -16z m1727 1 c3 -9 -1 -18 -10 -22
-19 -7 -39 11 -30 26 10 16 33 13 40 -4z m-1576 -82 c5 -17 -26 -29 -40 -15
-6 6 -7 15 -3 22 9 14 37 9 43 -7z m1430 0 c-5 -26 -38 -29 -38 -4 0 15 6 21
21 21 14 0 19 -5 17 -17z m-1280 -66 c2 -12 -3 -17 -17 -17 -15 0 -21 6 -21
21 0 25 33 22 38 -4z m1127 3 c0 -8 -8 -16 -17 -18 -13 -2 -18 3 -18 18 0 15
5 20 18 18 9 -2 17 -10 17 -18z m-967 -47 c5 -18 -28 -29 -38 -12 -5 7 -6 17
-3 22 7 12 35 5 41 -10z m810 0 c-2 -10 -10 -18 -18 -18 -8 0 -16 8 -18 18 -2
12 3 17 18 17 15 0 20 -5 18 -17z m-653 -33 c0 -8 -8 -16 -17 -18 -13 -2 -18
3 -18 18 0 15 5 20 18 18 9 -2 17 -10 17 -18z m493 3 c-2 -10 -10 -18 -18 -18
-8 0 -16 8 -18 18 -2 12 3 17 18 17 15 0 20 -5 18 -17z m-330 -16 c2 -12 -3
-17 -17 -17 -12 0 -21 6 -21 13 0 31 32 34 38 4z m166 8 c3 -9 -1 -18 -10 -22
-19 -7 -39 11 -30 26 10 16 33 13 40 -4z m-160 -516 c14 -48 26 -92 26 -98 0
-21 -19 -11 -22 12 -2 18 -10 23 -40 25 -32 3 -40 -1 -50 -22 -12 -27 -34 -37
-24 -11 3 9 15 48 27 88 26 87 38 112 48 101 5 -5 20 -48 35 -95z m416 -4 c0
-63 -4 -105 -10 -105 -6 0 -10 42 -10 105 0 63 4 105 10 105 6 0 10 -42 10
-105z m-929 15 c12 -44 25 -77 28 -74 3 3 15 38 27 77 11 39 26 73 32 75 8 2
7 -12 -3 -45 -9 -26 -22 -72 -31 -101 -9 -30 -21 -51 -27 -49 -6 2 -24 44 -39
93 -31 99 -32 104 -19 104 5 0 19 -36 32 -80z m679 40 c0 -24 4 -30 23 -31
l22 -2 -22 -4 c-20 -4 -23 -11 -23 -54 0 -42 3 -49 20 -49 11 0 20 -4 20 -10
0 -14 -33 -13 -48 2 -15 15 -17 178 -2 178 6 0 10 -13 10 -30z m80 20 c0 -5
-4 -10 -10 -10 -5 0 -10 5 -10 10 0 6 5 10 10 10 6 0 10 -4 10 -10z m-552 -62
c17 -17 15 -84 -4 -102 -35 -35 -94 -4 -94 49 0 51 65 86 98 53z m122 3 c0 -6
-12 -9 -27 -8 -40 3 -42 -28 -3 -42 26 -9 31 -15 28 -38 -2 -22 -9 -29 -32
-31 -16 -2 -34 2 -40 9 -8 9 -5 10 15 5 32 -7 57 15 37 31 -7 6 -23 14 -35 17
-22 7 -32 44 -16 59 10 11 73 8 73 -2z m290 -4 c-20 -10 -26 -21 -28 -57 -5
-73 -22 -72 -22 1 l0 66 38 1 c36 1 36 1 12 -11z m140 -52 c0 -37 -4 -65 -10
-65 -6 0 -10 28 -10 65 0 37 4 65 10 65 6 0 10 -28 10 -65z m120 55 c0 -6 -10
-8 -23 -5 -31 8 -49 -15 -45 -57 3 -30 6 -33 41 -36 46 -4 39 -22 -8 -22 -24
0 -38 6 -45 19 -14 27 -13 84 2 99 15 15 78 16 78 2z m183 -11 c18 -29 1 -49
-43 -49 -22 0 -40 -4 -40 -9 0 -17 33 -35 62 -33 18 2 27 -2 23 -8 -9 -14 -70
-12 -83 3 -40 47 -14 121 40 115 17 -2 36 -10 41 -19z m107 12 c0 -6 -12 -9
-26 -8 -40 3 -39 -18 1 -41 37 -23 44 -42 21 -61 -19 -16 -68 -10 -74 7 -3 11
0 12 16 3 24 -13 52 -5 52 14 0 7 -14 18 -30 24 -35 12 -47 35 -30 56 14 16
70 21 70 6z"/>
<path d="M2404 4473 c-3 -16 -10 -44 -15 -63 -13 -50 -13 -50 31 -50 22 0 40
4 40 8 0 13 -41 132 -46 132 -2 0 -6 -12 -10 -27z"/>
<path d="M2821 4463 c-12 -42 -4 -53 40 -53 29 0 49 17 49 41 0 20 -17 34 -52
43 -25 6 -28 3 -37 -31z"/>
<path d="M2792 4327 c-6 -29 -9 -53 -9 -54 1 0 18 -4 38 -8 43 -8 69 12 69 54
0 33 -13 46 -56 54 -31 6 -32 5 -42 -46z"/>
<path d="M3357 4248 c-77 -104 -91 -160 -44 -177 33 -13 50 2 96 78 45 77 51
105 22 121 -32 17 -49 12 -74 -22z"/>
<path d="M1312 4084 c-12 -8 -22 -20 -22 -26 0 -14 132 -166 146 -167 15 -1
54 43 54 61 0 9 -25 46 -56 82 -60 70 -81 79 -122 50z"/>
<path d="M2387 481 c-10 -30 -17 -56 -17 -58 0 -2 14 -3 30 -3 34 0 36 10 16
75 l-13 40 -16 -54z"/>
<path d="M2075 464 c-32 -32 -2 -96 39 -81 29 11 16 97 -15 97 -4 0 -15 -7
-24 -16z"/>
<path d="M2921 461 c-12 -22 -5 -31 25 -31 29 0 39 16 24 35 -17 20 -37 19
-49 -4z"/>
</g>
</svg>
